<?xml version="1.0" standalone="no"?>
<!DOCTYPE svg PUBLIC "-//W3C//DTD SVG 20010904//EN"
 "http://www.w3.org/TR/2001/REC-SVG-20010904/DTD/svg10.dtd">
<svg version="1.0" xmlns="http://www.w3.org/2000/svg"
 width="1024.000000pt" height="1024.000000pt" viewBox="0 0 1024.000000 1024.000000"
 preserveAspectRatio="xMidYMid meet">
<metadata>
Created by potrace 1.11, written by Peter Selinger 2001-2013
</metadata>
<g transform="translate(0.000000,1024.000000) scale(0.100000,-0.100000)"
fill="#000000" stroke="none">
<path d="M986 9998 c3 -203 6 -384 19 -993 4 -148 7 -354 9 -456 l3 -186 116
-114 c128 -126 868 -855 1330 -1311 163 -162 297 -294 297 -294 0 1 113 -111
252 -248 l253 -249 2 -2001 c1 -1101 2 -2009 2 -2018 1 -15 49 -17 650 -17
489 0 650 3 653 12 2 7 4 1034 4 2284 l-1 2271 -175 172 c-96 95 -350 344
-563 554 -213 209 -501 493 -640 629 -139 136 -431 424 -651 640 -219 216
-469 462 -556 547 -87 85 -348 342 -580 570 -232 228 -423 416 -424 418 -2 1
-2 -93 0 -210z"/>
<path d="M8915 9978 c-130 -128 -345 -340 -478 -470 -133 -131 -245 -238 -249
-238 -5 0 -8 -4 -8 -9 0 -5 -37 -44 -81 -87 -45 -44 -161 -158 -259 -254 -202
-199 -898 -883 -1220 -1200 -118 -116 -385 -378 -593 -583 -208 -205 -399
-392 -424 -416 l-45 -45 1 -2255 c0 -1241 0 -2268 1 -2282 l0 -27 653 2 652 1
2 2015 2 2015 335 330 c184 181 537 530 785 775 248 245 598 590 778 768 180
177 330 322 335 322 10 0 10 1 13 86 1 39 5 79 8 87 3 9 2 19 -4 22 -5 4 -6
11 -3 17 4 6 8 104 10 217 2 113 5 321 8 461 3 140 8 401 11 580 4 179 8 342
9 363 1 20 1 37 0 37 -1 0 -108 -105 -239 -232z"/>
<path d="M9052 6808 c-140 -143 -297 -305 -577 -593 -132 -135 -326 -335 -432
-443 l-192 -197 0 -1985 c0 -1092 -1 -2035 -1 -2097 l0 -112 -305 -3 c-168 -2
-305 -1 -305 2 0 3 -108 3 -240 0 -132 -3 -240 -3 -240 0 0 3 -180 3 -400 0
-220 -3 -400 -3 -400 0 0 3 -108 3 -240 0 -132 -3 -240 -3 -240 0 0 3 -396 3
-880 0 -484 -3 -880 -3 -880 0 0 3 -108 3 -240 0 -132 -3 -240 -3 -240 0 0 3
-108 3 -240 0 -132 -3 -240 -3 -240 0 0 3 -106 3 -235 0 -152 -3 -236 -1 -238
5 -2 6 -3 950 -3 2099 l1 2090 -70 72 c-38 39 -187 192 -330 339 -143 147
-323 331 -400 410 -77 78 -219 224 -315 324 -96 99 -178 181 -182 181 -4 0 -6
-27 -5 -60 1 -33 -1 -60 -6 -60 -4 0 -5 -5 -2 -10 10 -16 11 -190 2 -190 -5 0
-5 -5 -1 -11 9 -16 11 -109 1 -109 -5 0 -5 -5 -1 -11 9 -16 11 -229 1 -229 -5
0 -5 -5 -1 -11 9 -16 11 -109 1 -109 -5 0 -5 -5 -1 -11 9 -16 11 -109 1 -109
-5 0 -5 -5 -1 -11 9 -16 11 -109 1 -109 -5 0 -5 -5 -2 -11 10 -15 12 -589 2
-589 -5 0 -5 -5 -1 -11 9 -16 11 -109 1 -109 -5 0 -5 -5 -1 -11 9 -16 11 -109
1 -109 -5 0 -5 -5 -1 -11 9 -16 11 -109 1 -109 -5 0 -5 -5 -2 -11 10 -15 12
-589 2 -589 -5 0 -5 -5 -1 -11 9 -16 11 -109 1 -109 -5 0 -5 -5 -1 -11 9 -16
11 -109 1 -109 -5 0 -5 -5 -1 -11 9 -16 11 -109 1 -109 -5 0 -5 -5 -2 -11 10
-15 11 -229 2 -229 -5 0 -5 -5 -1 -11 9 -16 11 -109 1 -109 -5 0 -5 -5 -2 -10
10 -16 11 -190 2 -190 -5 0 -5 -5 -1 -11 9 -16 11 -109 1 -109 -5 0 -5 -5 -2
-10 10 -16 11 -190 2 -190 -5 0 -5 -5 -1 -11 9 -16 11 -109 1 -109 -5 0 -5 -5
-2 -10 10 -16 11 -190 2 -190 -5 0 -5 -5 -1 -11 9 -16 11 -109 1 -109 -5 0 -5
-5 -1 -11 9 -16 11 -229 1 -229 -5 0 -5 -5 -1 -11 9 -16 11 -109 1 -109 -5 0
-5 -5 -1 -11 9 -16 11 -109 1 -109 -5 0 -5 -5 -1 -11 9 -16 11 -109 1 -109 -5
0 -5 -5 -2 -11 10 -15 12 -589 2 -589 -5 0 -5 -5 -1 -11 9 -16 11 -109 1 -109
-5 0 -5 -5 -1 -11 9 -16 11 -109 1 -109 -5 0 -5 -5 -1 -11 9 -16 11 -109 1
-109 -5 0 -5 -5 -2 -11 10 -15 12 -589 2 -589 -5 0 -5 -5 -1 -11 9 -16 11
-109 1 -109 -5 0 -5 -5 -1 -11 9 -16 11 -109 1 -109 -5 0 -5 -5 -1 -12 4 -7 7
-35 6 -64 l-1 -51 4072 -1 c2240 0 4079 1 4087 4 13 3 15 391 15 3409 0 1873
0 3405 -1 3405 -1 0 -46 -46 -102 -102z"/>
</g>
</svg>
