<?xml version="1.0" encoding="utf-8"?>
<!-- Generator: Adobe Illustrator 16.0.0, SVG Export Plug-In . SVG Version: 6.00 Build 0)  -->
<!DOCTYPE svg PUBLIC "-//W3C//DTD SVG 1.1//EN" "http://www.w3.org/Graphics/SVG/1.1/DTD/svg11.dtd">
<svg version="1.1" id="Layer_1" xmlns="http://www.w3.org/2000/svg" xmlns:xlink="http://www.w3.org/1999/xlink" x="0px" y="0px"
     width="200px" height="200px" viewBox="0 0 200 200" enable-background="new 0 0 200 200" xml:space="preserve">
<g>
    <defs>
        <rect id="SVGID_1_" width="200" height="200"/>
    </defs>
    <clipPath id="SVGID_2_">
        <use xlink:href="#SVGID_1_"  overflow="visible"/>
    </clipPath>
    <path clip-path="url(#SVGID_2_)" fill="#C2C2C2" d="M51.834,164.182c-0.28-0.047-0.583-0.069-0.91-0.069
        c-1.212,0-2.035,0.516-2.469,1.549v7.677h-1.849v-10.814h1.799l0.03,1.25c0.607-0.968,1.466-1.45,2.579-1.45
        c0.36,0,0.633,0.046,0.82,0.14V164.182z"/>
    <path clip-path="url(#SVGID_2_)" fill="#C2C2C2" d="M57.832,173.538c-1.466,0-2.659-0.481-3.579-1.443
        c-0.919-0.965-1.379-2.251-1.379-3.864v-0.339c0-1.073,0.205-2.032,0.615-2.874c0.41-0.845,0.982-1.503,1.719-1.979
        c0.736-0.477,1.534-0.715,2.394-0.715c1.406,0,2.499,0.463,3.279,1.389c0.779,0.928,1.169,2.253,1.169,3.979v0.769h-7.327
        c0.027,1.066,0.338,1.929,0.935,2.584c0.596,0.657,1.354,0.984,2.274,0.984c0.653,0,1.206-0.132,1.659-0.4
        c0.453-0.265,0.85-0.618,1.19-1.058l1.129,0.879C61.003,172.843,59.644,173.538,57.832,173.538 M57.602,163.843
        c-0.746,0-1.373,0.271-1.879,0.814c-0.507,0.543-0.82,1.304-0.94,2.284H60.2v-0.14c-0.053-0.94-0.307-1.669-0.76-2.185
        C58.987,164.101,58.375,163.843,57.602,163.843"/>
    <path clip-path="url(#SVGID_2_)" fill="#C2C2C2" d="M75.184,168.72c-0.18,1.539-0.748,2.728-1.704,3.563
        c-0.957,0.837-2.228,1.255-3.814,1.255c-1.719,0-3.097-0.616-4.133-1.849c-1.036-1.233-1.554-2.882-1.554-4.948v-1.4
        c0-1.352,0.241-2.541,0.725-3.567c0.482-1.026,1.167-1.814,2.054-2.364c0.886-0.55,1.912-0.825,3.078-0.825
        c1.546,0,2.786,0.433,3.719,1.295c0.933,0.863,1.476,2.058,1.629,3.583h-1.929c-0.167-1.163-0.529-2.005-1.085-2.525
        c-0.556-0.522-1.334-0.783-2.334-0.783c-1.226,0-2.187,0.454-2.884,1.362c-0.696,0.906-1.044,2.196-1.044,3.87v1.41
        c0,1.581,0.33,2.839,0.99,3.772c0.659,0.934,1.582,1.4,2.768,1.4c1.067,0,1.884-0.241,2.455-0.725
        c0.569-0.483,0.947-1.325,1.134-2.524H75.184z"/>
    <path clip-path="url(#SVGID_2_)" fill="#C2C2C2" d="M85.84,169.53h-6.098l-1.369,3.809h-1.979l5.557-14.555h1.68l5.567,14.555
        h-1.969L85.84,169.53z M80.322,167.961h4.948l-2.479-6.809L80.322,167.961z"/>
    <path clip-path="url(#SVGID_2_)" fill="#C2C2C2" d="M93.076,167.641v5.697h-1.919v-14.553h5.368c1.592,0,2.84,0.405,3.743,1.219
        c0.901,0.813,1.354,1.89,1.354,3.228c0,1.414-0.44,2.501-1.324,3.266c-0.883,0.762-2.147,1.144-3.792,1.144H93.076z M93.076,166.07
        h3.449c1.026,0,1.812-0.241,2.359-0.725c0.546-0.484,0.819-1.184,0.819-2.099c0-0.867-0.273-1.563-0.819-2.082
        c-0.547-0.521-1.297-0.791-2.25-0.813h-3.558V166.07z"/>
    <polygon clip-path="url(#SVGID_2_)" fill="#C2C2C2" points="114.127,160.354 109.448,160.354 109.448,173.338 107.54,173.338 
        107.54,160.354 102.872,160.354 102.872,158.784 114.127,158.784  "/>
    <path clip-path="url(#SVGID_2_)" fill="#C2C2C2" d="M126.712,168.72c-0.181,1.539-0.748,2.728-1.704,3.563
        c-0.957,0.837-2.229,1.255-3.814,1.255c-1.719,0-3.097-0.616-4.133-1.849c-1.037-1.233-1.555-2.882-1.555-4.948v-1.4
        c0-1.352,0.242-2.541,0.726-3.567c0.482-1.026,1.167-1.814,2.054-2.364c0.886-0.55,1.912-0.825,3.078-0.825
        c1.547,0,2.785,0.433,3.719,1.295c0.933,0.863,1.477,2.058,1.63,3.583h-1.93c-0.167-1.163-0.527-2.005-1.085-2.525
        c-0.556-0.522-1.335-0.783-2.334-0.783c-1.226,0-2.188,0.454-2.884,1.362c-0.697,0.906-1.044,2.196-1.044,3.87v1.41
        c0,1.581,0.329,2.839,0.989,3.772s1.583,1.4,2.769,1.4c1.067,0,1.885-0.241,2.455-0.725c0.569-0.483,0.947-1.325,1.134-2.524
        H126.712z"/>
    <polygon clip-path="url(#SVGID_2_)" fill="#C2C2C2" points="140.517,173.338 138.587,173.338 138.587,166.611 131.25,166.611 
        131.25,173.338 129.33,173.338 129.33,158.784 131.25,158.784 131.25,165.042 138.587,165.042 138.587,158.784 140.517,158.784  
        "/>
    <path clip-path="url(#SVGID_2_)" fill="#C2C2C2" d="M152.141,169.53h-6.098l-1.37,3.809h-1.979l5.558-14.555h1.68l5.566,14.555
        h-1.968L152.141,169.53z M146.622,167.961h4.948l-2.479-6.809L146.622,167.961z"/>
    <path clip-path="url(#SVGID_2_)" fill="#3A6CD7" d="M147.269,48.981l-22.551,22.591c0.72-2.801-18.938-27.49-43.689-7.446
        L63.618,45.023c0,0-6.195-3.633,11.554-13.793C102.979,15.313,138.282,32.166,147.269,48.981"/>
    <polygon clip-path="url(#SVGID_2_)" fill="#3A6CD7" points="112.786,81.065 158.337,82.159 157.796,36.593     "/>
    <path clip-path="url(#SVGID_2_)" fill="#3766CF" d="M70.948,53.065c0.567,0.627,10.044-5.571,10.92-6.089
        c4.133-2.444,8.735-5.16,13.453-6.276c4.73-1.118,6.108-15.867,6.108-15.867s17.035,18.038,23.291,23.376
        c7.29,6.22,19.213,19.351,25.99,26.158c2.564,2.575,5.106,5.173,7.627,7.792l-45.551-1.094l11.222-11.089
        c0,0-9.85-9.909-14.488-11.971c-4.638-2.062-10.114-2.616-15.764-0.728c-5.651,1.887-17.9,0.626-17.9,0.626
        S70.955,53.074,70.948,53.065"/>
    <path clip-path="url(#SVGID_2_)" fill="#4E8DF5" d="M68.451,35.774l22.503,22.639c-2.798-0.731-28.852,18.124-8.904,42.952
        l-18.795,18.68c0,0-1.796,4.973-12.834-12.243C35,83.75,51.601,44.695,68.451,35.774"/>
    <polygon clip-path="url(#SVGID_2_)" fill="#4E8DF5" points="101.415,69.002 101.43,24.833 56.773,24.819   "/>
    <path clip-path="url(#SVGID_2_)" fill="#C4C4C4" d="M53.625,114.5l22.962-24.671c-0.73,2.798,18.2,30.356,43.022,10.401
        l21.901,22.023c0,0,3.428,0.611-14.357,10.707C99.289,148.779,62.926,131.847,54,115"/>
    <polygon clip-path="url(#SVGID_2_)" fill="#C4C4C4" points="89.338,81 44.452,81 41.167,128.414   "/>
</g>
</svg>
