<?xml version="1.0" encoding="UTF-8"?>
<svg width="43px" height="44px" viewBox="0 0 43 44" version="1.1" xmlns="http://www.w3.org/2000/svg" xmlns:xlink="http://www.w3.org/1999/xlink">
    <!-- Generator: Sketch 50 (54983) - http://www.bohemiancoding.com/sketch -->
    <title>noun_363904</title>
    <desc>Created with Sketch.</desc>
    <defs></defs>
    <g id="Page-1" stroke="none" stroke-width="1" fill="none" fill-rule="evenodd">
        <g id="noun_363904" fill="#C47822" fill-rule="nonzero">
            <path d="M41.3778769,0 L13.5705424,0 C12.6747687,0 11.9484193,0.733679954 11.9484193,1.63778163 L11.9484193,36.0577701 C11.9484193,36.961294 12.6747687,37.694974 13.5705424,37.694974 L15.9064226,37.694974 C15.6528586,40.6117851 13.3272812,42.8954362 10.4934309,42.8954362 C7.66015308,42.8954362 5.33514809,40.6117851 5.08158403,37.694974 L8.25084859,37.694974 C9.1466223,37.694974 9.87297171,36.961294 9.87297171,36.0577701 L9.87297171,1.63778163 C9.87297171,0.733679954 9.1466223,0 8.25084859,0 L1.62212313,0 C0.726349418,0 0,0.733679954 0,1.63778163 L0,36.0577701 C0,36.961294 0.726349418,37.694974 1.62212313,37.694974 L4.03298502,37.694974 C4.28998336,41.2218371 7.08147754,44 10.4934309,44 C13.9065291,44 16.6974509,41.2218371 16.9550216,37.694974 L41.3778769,37.694974 C42.2730782,37.694974 43,36.961294 43,36.0577701 L43,1.63778163 C43,0.733679954 42.2730782,0 41.3778769,0 Z M20.5341098,30.3778163 L19.2462562,30.3778163 C18.4558003,30.3778163 17.8153078,29.7313692 17.8153078,28.9335644 C17.8153078,28.1357597 18.4558003,27.4893125 19.2462562,27.4893125 L20.5341098,27.4893125 C21.3245657,27.4893125 21.9650582,28.1357597 21.9650582,28.9335644 C21.9650582,29.7313692 21.3239933,30.3778163 20.5341098,30.3778163 Z M20.5341098,23.8786828 L19.2462562,23.8786828 C18.4558003,23.8786828 17.8153078,23.2322357 17.8153078,22.434431 C17.8153078,21.6366262 18.4558003,20.9901791 19.2462562,20.9901791 L20.5341098,20.9901791 C21.3245657,20.9901791 21.9650582,21.6366262 21.9650582,22.434431 C21.9650582,23.2322357 21.3239933,23.8786828 20.5341098,23.8786828 Z M20.5341098,17.3795494 L19.2462562,17.3795494 C18.4558003,17.3795494 17.8153078,16.7331023 17.8153078,15.9352975 C17.8153078,15.1374928 18.4558003,14.4910456 19.2462562,14.4910456 L20.5341098,14.4910456 C21.3245657,14.4910456 21.9650582,15.1374928 21.9650582,15.9352975 C21.9650582,16.7331023 21.3239933,17.3795494 20.5341098,17.3795494 Z M28.153624,30.3778163 L26.8657704,30.3778163 C26.0753145,30.3778163 25.434822,29.7313692 25.434822,28.9335644 C25.434822,28.1357597 26.0753145,27.4893125 26.8657704,27.4893125 L28.153624,27.4893125 C28.9440799,27.4893125 29.5845724,28.1357597 29.5845724,28.9335644 C29.5845724,29.7313692 28.9440799,30.3778163 28.153624,30.3778163 Z M28.153624,23.8786828 L26.8657704,23.8786828 C26.0753145,23.8786828 25.434822,23.2322357 25.434822,22.434431 C25.434822,21.6366262 26.0753145,20.9901791 26.8657704,20.9901791 L28.153624,20.9901791 C28.9440799,20.9901791 29.5845724,21.6366262 29.5845724,22.434431 C29.5845724,23.2322357 28.9440799,23.8786828 28.153624,23.8786828 Z M28.153624,17.3795494 L26.8657704,17.3795494 C26.0753145,17.3795494 25.434822,16.7331023 25.434822,15.9352975 C25.434822,15.1374928 26.0753145,14.4910456 26.8657704,14.4910456 L28.153624,14.4910456 C28.9440799,14.4910456 29.5845724,15.1374928 29.5845724,15.9352975 C29.5845724,16.7331023 28.9440799,17.3795494 28.153624,17.3795494 Z M35.7737105,30.3778163 L34.4858569,30.3778163 C33.695401,30.3778163 33.0549085,29.7313692 33.0549085,28.9335644 C33.0549085,28.1357597 33.695401,27.4893125 34.4858569,27.4893125 L35.7737105,27.4893125 C36.5641664,27.4893125 37.2046589,28.1357597 37.2046589,28.9335644 C37.2046589,29.7313692 36.563594,30.3778163 35.7737105,30.3778163 Z M35.7737105,23.8786828 L34.4858569,23.8786828 C33.695401,23.8786828 33.0549085,23.2322357 33.0549085,22.434431 C33.0549085,21.6366262 33.695401,20.9901791 34.4858569,20.9901791 L35.7737105,20.9901791 C36.5641664,20.9901791 37.2046589,21.6366262 37.2046589,22.434431 C37.2046589,23.2322357 36.563594,23.8786828 35.7737105,23.8786828 Z M35.7737105,17.3795494 L34.4858569,17.3795494 C33.695401,17.3795494 33.0549085,16.7331023 33.0549085,15.9352975 C33.0549085,15.1374928 33.695401,14.4910456 34.4858569,14.4910456 L35.7737105,14.4910456 C36.5641664,14.4910456 37.2046589,15.1374928 37.2046589,15.9352975 C37.2046589,16.7331023 36.563594,17.3795494 35.7737105,17.3795494 Z M35.8807454,9.66493356 L19.1031614,9.66493356 C18.3722329,9.66493356 17.7792479,9.06701329 17.7792479,8.32871173 C17.7792479,7.59041017 18.3716606,6.99248989 19.1031614,6.99248989 L35.8813178,6.99248989 C36.6122463,6.99248989 37.2052313,7.59041017 37.2052313,8.32871173 C37.2052313,9.06701329 36.6116739,9.66493356 35.8807454,9.66493356 Z" id="Shape"></path>
        </g>
    </g>
</svg>