<svg xmlns="http://www.w3.org/2000/svg" viewBox="0 0 536.7 192.5">
  <path d="M149.8 70.3V3.4h50.4v13.1h-35.8V30h31.5v13.1h-31.5v14.1h36.3v13.1h-50.9zm59.6 0V3.4H224v66.9h-14.6zm24.6 0V3.4h14.5v66.9H234zm24.2-54V3.4h15.3v12.9h-15.3zm.4 53.9V21.9h14.5v48.3h-14.5zm74.9-16.4a26.5 26.5 0 0 1-5.9 8.5c-2.5 2.4-5.5 4.4-8.9 5.8-3.4 1.4-7.1 2.1-11.2 2.1-4 0-7.7-.7-11.1-2.1-3.4-1.4-6.4-3.3-8.8-5.7a25.2 25.2 0 0 1-5.8-8.5c-1.4-3.2-2.1-6.7-2.1-10.5v-.2c0-3.7.7-7.2 2.1-10.5 1.4-3.2 3.4-6.1 5.9-8.5 2.5-2.4 5.5-4.4 8.9-5.8 3.4-1.4 7.1-2.1 11.2-2.1 4 0 7.7.7 11.1 2.1 3.4 1.4 6.3 3.3 8.8 5.7 2.5 2.4 4.4 5.2 5.8 8.5 1.4 3.2 2.1 6.7 2.1 10.5v.2c0 3.8-.7 7.3-2.1 10.5zm-12.3-10.4c0-1.9-.3-3.7-1-5.5-.6-1.7-1.6-3.2-2.8-4.5-1.2-1.3-2.7-2.4-4.3-3.1-1.7-.8-3.5-1.2-5.5-1.2-2.1 0-4 .4-5.6 1.1a14 14 0 0 0-4.2 3c-1.2 1.3-2 2.8-2.7 4.5-.6 1.7-.9 3.5-.9 5.4v.2c0 1.9.3 3.7 1 5.4.6 1.7 1.6 3.2 2.8 4.5 1.2 1.3 2.7 2.4 4.3 3.1 1.6.8 3.5 1.2 5.5 1.2 2.1 0 4-.4 5.6-1.1a14 14 0 0 0 4.2-3c1.2-1.3 2-2.8 2.7-4.5.6-1.7.9-3.5.9-5.4v-.1zm43.5 26.1c-1.8.5-4 .8-6.4.8-2.2 0-4.3-.2-6.1-.7-1.8-.5-3.4-1.3-4.7-2.5a13.3 13.3 0 0 1-3.1-4.7c-.7-1.9-1.1-4.4-1.1-7.4V29h-6.1V16.5h6.1V3.4h14.5v13.1h12v12.4h-12v23.6c0 3.3 1.6 5 4.7 5 2.5 0 4.9-.6 7.2-1.8v11.7c-1.4.8-3.1 1.5-5 2.1zm36.4 0c-1.8.5-4 .8-6.4.8-2.2 0-4.3-.2-6.1-.7-1.8-.5-3.4-1.3-4.7-2.5a13.3 13.3 0 0 1-3.1-4.7c-.7-1.9-1.1-4.4-1.1-7.4V29h-6.1V16.5h6.1V3.4h14.5v13.1h12v12.4h-12v23.6c0 3.3 1.6 5 4.7 5 2.5 0 4.9-.6 7.2-1.8v11.7c-1.5.8-3.2 1.5-5 2.1zm-198.9 75.3v-43.7l-18.8 28.6h-.4l-18.6-28.3v43.4h-14.5V77.9h15.9l17.6 28.3L201 77.9h15.9v66.9h-14.7zm54.8 0v-5.7c-1.8 2-3.9 2.8-6.4 4-2.5 1.2-5.5 1.8-9.1 1.8-2.4 0-4.7-.3-6.8-1-2.1-.7-4-1.7-5.6-3.1-1.6-1.4-2.9-3-3.8-5-.9-2-1.4-4.3-1.4-6.9v-.2c0-2.9.5-5.3 1.5-7.4 1-2.1 2.4-3.8 4.3-5.2s4-2.4 6.5-3.1c2.5-.7 5.3-1 8.4-1a33.68 33.68 0 0 1 12.5 2.2v-.9c0-3.1-.9-5.5-2.8-7.1-1.8-1.6-4.6-2.4-8.2-2.4-2.8 0-5.3.2-7.4.7-2.1.5-4.4 1.2-6.7 2.1l-3.6-11.3c2.8-1.2 5.7-2.2 8.8-3 3.1-.8 6.8-1.2 11.1-1.2 8 0 13.8 2 17.4 6 3.6 4 5.4 9.5 5.4 16.6v31.2H257zm.3-22c-1.3-.6-2.7-1.1-4.3-1.4-1.6-.4-3.2-.5-5-.5-3.1 0-5.6.6-7.4 1.9-1.8 1.2-2.7 3-2.7 5.4v.2c0 2 .7 3.6 2.2 4.7a9.4 9.4 0 0 0 5.7 1.7c3.4 0 6.2-.8 8.3-2.5 2.1-1.7 3.1-3.9 3.1-6.6v-2.9zm45.7 22c-1.8.5-4 .8-6.4.8-2.2 0-4.3-.2-6.1-.7-1.8-.5-3.4-1.3-4.7-2.5a13.3 13.3 0 0 1-3.1-4.7c-.7-1.9-1.1-4.4-1.1-7.4v-26.9h-6.1V91h6.1V77.9h14.5V91h12v12.4h-12v24.5c0 3.3 1.6 5 4.7 5 2.5 0 4.9-.6 7.2-1.8v11.7c-1.4.8-3.1 1.5-5 2zm36.4 0c-1.8.5-4 .8-6.4.8-2.2 0-4.3-.2-6.1-.7s-3.4-1.3-4.7-2.5a13.3 13.3 0 0 1-3.1-4.7c-.7-1.9-1.1-4.4-1.1-7.4v-26.9h-6V91h6.1V77.9h14.5V91h12v12.4h-12v24.5c0 3.3 1.6 5 4.7 5 2.5 0 4.9-.6 7.2-1.8v11.7c-1.5.8-3.2 1.5-5.1 2zm46.7.1v-25.8c0-3.4-.8-6-2.3-7.8-1.5-1.7-3.7-2.6-6.5-2.6s-5 .9-6.6 2.6c-1.6 1.7-2.4 4.3-2.4 7.8v25.8h-14.5v-67h14.5v25.9c.8-1.1 1.7-2.1 2.7-3.1 1-1 2.1-1.9 3.3-2.6 1.2-.8 2.5-1.4 4-1.8 1.5-.5 3.1-.7 5-.7 5.5 0 9.8 1.7 12.9 5.1 3 3.4 4.5 8 4.5 14v30.4h-14.6zm69.7-23.8c0 .5-.1-.7-.1 0l-35.8.1c0 3.7 2.3 7.7 4.5 9.4 2.2 1.7 4.9 2.6 8.2 2.6 2.4 0 4.6-.4 6.5-1.3 1.9-.8 3.9-2.2 5.9-4.1l8.3 7.4c-2.4 3-5.4 5.4-8.8 7.1-3.4 1.7-7.5 2.6-12.1 2.6-3.8 0-7.4-.6-10.7-1.9a24.7 24.7 0 0 1-14.1-14c-1.3-3.3-2-6.9-2-10.9v-.2c0-3.7.6-7.2 1.9-10.4 1.2-3.3 3-6.2 5.2-8.6 2.2-2.4 4.9-4.4 8-5.8 3.1-1.4 6.5-2.1 10.3-2.1 4.3 0 8 .8 11.1 2.3 3.1 1.5 5.7 3.6 7.8 6.2 2.1 2.6 3.6 5.6 4.6 9 1 3.4 1.5 6.9 1.5 10.6v.2c-.1.7-.1 1.3-.2 1.8zm-17.5-15.3c-1.8-2-4.3-3-7.4-3-3.1 0-5.5 1-7.4 3-1.9 2-3.1 3.9-3.7 7.3h21.9c-.4-3.3-1.5-5.3-3.4-7.3zm79.8 39.1H505l-9.8-32.7-10 32.7h-13l-15.8-53.7H471l8.2 32.3 9.7-32.5h12.5l9.7 32.6 8.4-32.4H534l-15.9 53.7zM34.9 60.6v56.7H53V53.1L3.3 3.4l.5 26z"/>
  <path d="M98.3 127.6h-77v-59l-18-18.8v95.9h113V49.8l-18 18.8z"/>
  <path d="M84.7 60.6l31.1-31.2.5-26-49.7 49.7v64.2h18.1zm68.2 124v5.5h-2v-13.5h2.3c1.1 0 2 .1 2.6.2.6.2 1.1.5 1.5.9.8.8 1.2 1.7 1.2 2.9s-.4 2.2-1.2 2.9c-.8.7-1.9 1.1-3.4 1.1h-1zm0-1.9h.8c1.9 0 2.8-.7 2.8-2.2 0-1.4-1-2.1-2.9-2.1h-.7v4.3zm25.2 1.6l4.2 5.8h-2.5l-3.9-5.5h-.4v5.5h-2v-13.5h2.4c1.8 0 3.1.3 3.9 1 .9.7 1.3 1.7 1.3 3 0 1-.3 1.8-.8 2.5-.6.6-1.3 1-2.2 1.2zm-2.5-1.5h.6c1.9 0 2.9-.7 2.9-2.2 0-1.4-.9-2.1-2.8-2.1h-.7v4.3zm20.8.4c0-1.9.7-3.5 2.1-4.9 1.4-1.4 3.1-2 5-2s3.6.7 5 2.1c1.4 1.4 2.1 3 2.1 5 0 1.9-.7 3.6-2.1 4.9-1.4 1.4-3.1 2-5 2-1.7 0-3.3-.6-4.7-1.8-1.7-1.3-2.4-3.1-2.4-5.3zm2 .1c0 1.5.5 2.7 1.5 3.7s2.1 1.4 3.5 1.4 2.6-.5 3.6-1.5 1.5-2.2 1.5-3.6-.5-2.6-1.4-3.6c-1-1-2.1-1.5-3.6-1.5-1.4 0-2.6.5-3.6 1.5s-1.5 2.1-1.5 3.6zm29.8 1.3v5.5h-2v-13.5h2.3c1.1 0 2 .1 2.6.2.6.2 1.1.5 1.5.9.8.8 1.2 1.7 1.2 2.9s-.4 2.2-1.2 2.9c-.8.7-1.9 1.1-3.4 1.1h-1zm0-1.9h.8c1.9 0 2.8-.7 2.8-2.2 0-1.4-1-2.1-2.9-2.1h-.7v4.3zm28.1-4.2h-5.4v3.2h5.3v1.9h-5.3v4.5h5.4v1.9h-7.5v-13.5h7.5v2zm20.5 5.8l4.2 5.8h-2.5l-3.9-5.5h-.4v5.5h-2v-13.5h2.4c1.8 0 3.1.3 3.9 1 .9.7 1.3 1.7 1.3 3 0 1-.3 1.8-.8 2.5-.6.6-1.3 1-2.2 1.2zm-2.6-1.5h.6c1.9 0 2.9-.7 2.9-2.2 0-1.4-.9-2.1-2.8-2.1h-.7v4.3zm25.5-4.3v11.6h-2v-11.6h-3.1v-1.9h8.2v1.9h-3.1zm21.6 5.7l-4.4-7.7h2.3l3.1 5.4 3.1-5.4h2.3l-4.4 7.7v5.8h-2v-5.8zm42.4-7.6v11.6h4v1.9h-6v-13.5h2zm27.8 10.2h-5.8l-1.5 3.3H382l6.7-14.4 6.4 14.4h-2.2l-1.4-3.3zm-.8-1.9l-2-4.6-2.1 4.6h4.1zm18.6-8.3l3.5 9 3.7-9.7 3.5 9.7 3.7-9h2.2l-6 14.4-3.5-9.6-3.6 9.6-5.7-14.4h2.2zm35.1 7.6l-4.4-7.7h2.3l3.1 5.4 3.1-5.4h2.3l-4.4 7.7v5.8h-2v-5.8zm28.6-5.7h-5.4v3.2h5.3v1.9h-5.3v4.5h5.4v1.9h-7.5v-13.5h7.5v2zm20.5 5.8l4.2 5.8h-2.5l-3.9-5.5h-.3v5.5h-2v-13.5h2.4c1.8 0 3.1.3 3.9 1 .9.7 1.3 1.7 1.3 3 0 1-.3 1.8-.8 2.5-.7.6-1.4 1-2.3 1.2zm-2.5-1.5h.6c1.9 0 2.9-.7 2.9-2.2 0-1.4-.9-2.1-2.8-2.1h-.7v4.3zm29.1-4.2l-1.7 1c-.3-.5-.6-.9-.9-1-.3-.2-.7-.3-1.1-.3-.6 0-1 .2-1.4.5-.4.3-.6.7-.6 1.2 0 .7.5 1.2 1.5 1.6l1.3.6c1.1.4 1.9 1 2.4 1.6.5.6.8 1.4.8 2.3 0 1.2-.4 2.3-1.2 3.1-.8.8-1.9 1.2-3.1 1.2-1.2 0-2.1-.3-2.9-1a4.7 4.7 0 0 1-1.4-2.9l2.1-.5c.1.8.3 1.3.5 1.6.4.6 1 .9 1.8.9.6 0 1.2-.2 1.6-.6.4-.4.6-1 .6-1.6 0-.3 0-.5-.1-.7l-.3-.6c-.2-.2-.4-.4-.6-.5-.2-.2-.5-.3-.9-.5l-1.3-.5c-1.8-.8-2.8-1.9-2.8-3.4 0-1 .4-1.9 1.2-2.5.8-.7 1.7-1 2.9-1 1.5-.3 2.7.4 3.6 2z"/>
</svg>
